VIDEO INFO:

Format                           : AVI
Format/Info                      : Audio Video Interleave
Format profile                   : OpenDML
Format settings                  : rec
File size                        : 1.37 GiB
Duration                         : 1h 46mn
Overall bit rate                 : 1 829 Kbps
Writing application              : AVI-Mux GUI 1.17.7, Aug  8 2006  20:59:17

Video
ID                               : 0
Format                           : MPEG-4 Visual
Format profile                   : Advanced Simple@L5
Format settings, BVOP            : 2
Format settings, QPel            : No
Format settings, GMC             : No warppoints
Format settings, Matrix          : Custom
Codec ID                         : XVID
Codec ID/Hint                    : XviD
Duration                         : 1h 46mn
Bit rate                         : 1 599 Kbps
Width                            : 720 pixels
Height                           : 448 pixels
Display aspect ratio             : 1.607
Frame rate                       : 25.000 fps
Color space                      : YUV
Chroma subsampling               : 4:2:0
Bit depth                        : 8 bits
Scan type                        : Progressive
Compression mode                 : Lossy
Bits/(Pixel*Frame)               : 0.198
Stream size                      : 1.19 GiB (87%)
Writing library                  : XviD 58

Audio
ID                               : 1
Format                           : AC-3
Format/Info                      : Audio Coding 3
Mode extension                   : CM (complete main)
Codec ID                         : 2000
Duration                         : 1h 46mn
Bit rate mode                    : Constant
Bit rate                         : 224 Kbps
Channel(s)                       : 2 channels
Channel positions                : Front: L R
Sampling rate                    : 48.0 KHz
Bit depth                        : 16 bits
Compression mode                 : Lossy
Stream size                      : 171 MiB (12%)
Alignment                        : Aligned on interleaves
Interleave, duration             : 64 ms (1.60 video frames)
Interleave, preload duration     : 192 ms

Text
ID                               : 2
Stream size                      : 43.4 KiB (0%)

--------------------------------------

Holland
Drama / Romance
98 minuten

directed by Paul Verhoeven
with Rutger Hauer, Monique van de Ven and Dolf de Vries

Sort of a cross between "Love Story" and an earthy Rembrandt painting, this movie stars Rutger Hauer as a gifted Dutch sculptor who has a stormy, erotic, and star-crossed romance with a beautiful young girl.

-Subtitles (english) in the movie with the possibily to set it ON-OFF
Spoken language is Dutch.